<?xml version="1.0" encoding="UTF-8"?>
<svg id="Layer_1" data-name="Layer 1" xmlns="http://www.w3.org/2000/svg" viewBox="0 0 422.36 247.96">
  <defs>
    <style>
      .cls-1 {
        fill: none;
        stroke: #f15a29;
        stroke-miterlimit: 10;
        stroke-width: 5px;
      }

      .cls-2 {
        fill: #ec632b;
      }
    </style>
  </defs>
  <g>
    <path class="cls-2" d="m2.96,144.7H0v-33.15h2.96v33.15Z"/>
    <path class="cls-2" d="m11.84,120.59v24.11h-2.96v-24.11c0-6.03,2.96-9.04,8.88-9.04h14.8c5.92,0,8.88,3.01,8.88,9.04v24.11h-2.96v-24.11c0-4.02-1.97-6.03-5.92-6.03h-14.8c-3.95,0-5.92,2.01-5.92,6.03Z"/>
    <path class="cls-2" d="m50.33,120.59v24.11h-2.96v-24.11c0-6.03,2.96-9.04,8.88-9.04h14.8c5.92,0,8.88,3.01,8.88,9.04v24.11h-2.96v-24.11c0-4.02-1.97-6.03-5.92-6.03h-14.8c-3.95,0-5.92,2.01-5.92,6.03Z"/>
    <path class="cls-2" d="m118.43,111.55v3.01h-29.61v12.05h29.61v3.01h-29.61v12.05h29.61v3.01h-32.57v-33.15h32.57Z"/>
    <path class="cls-2" d="m148.04,111.55c5.92,0,8.88,3.01,8.88,9.04,0,3.58-1.04,6.09-3.11,7.53,2.07,1.45,3.11,3.96,3.11,7.53v9.04h-2.96v-9.04c0-4.02-1.97-6.03-5.92-6.03h-20.73v15.07h-2.96v-33.15h23.69Zm0,3.01h-20.73v12.05h20.73c3.95,0,5.92-2.01,5.92-6.03s-1.97-6.03-5.92-6.03Z"/>
    <path class="cls-2" d="m210.21,111.55h14.8c5.92,0,8.88,3.01,8.88,9.04v24.11h-2.96v-13.56h-26.65v13.56h-2.96v-24.11c0-6.03,2.96-9.04,8.88-9.04Zm14.8,3.01h-14.8c-3.95,0-5.92,2.01-5.92,6.03v7.53h26.65v-7.53c0-4.02-1.97-6.03-5.92-6.03Z"/>
    <path class="cls-2" d="m267.95,111.55v3.01h-14.8v30.13h-2.96v-30.13h-14.8v-3.01h32.57Z"/>
    <path class="cls-2" d="m276.83,144.7h-2.96v-33.15h2.96v33.15Z"/>
    <path class="cls-2" d="m291.63,111.55h14.8c5.92,0,8.88,3.01,8.88,9.04v15.07c0,6.03-2.96,9.04-8.88,9.04h-14.8c-5.92,0-8.88-3.01-8.88-9.04v-15.07c0-6.03,2.96-9.04,8.88-9.04Zm14.8,3.01h-14.8c-3.95,0-5.92,2.01-5.92,6.03v15.07c0,4.02,1.97,6.03,5.92,6.03h14.8c3.95,0,5.92-2.01,5.92-6.03v-15.07c0-4.02-1.97-6.03-5.92-6.03Z"/>
    <path class="cls-2" d="m324.2,120.59v24.11h-2.96v-24.11c0-6.03,2.96-9.04,8.88-9.04h14.8c5.92,0,8.88,3.01,8.88,9.04v24.11h-2.96v-24.11c0-4.02-1.97-6.03-5.92-6.03h-14.8c-3.95,0-5.92,2.01-5.92,6.03Z"/>
    <path class="cls-2" d="m178.08,144.14l-16.65-32.59h4.1l11.97,23.7c.45.86.88,1.73,1.3,2.61.42.88.85,1.91,1.3,3.09.45-1.18.88-2.2,1.3-3.06.42-.86.85-1.74,1.3-2.65l11.97-23.7h4.02l-16.65,32.59h-3.93Z"/>
  </g>
  <path class="cls-1" d="m179.42,94.3c2.16-9.8,6.68-24.33,16.85-39.31,16.96-24.98,39.26-35.9,48.14-40.11,16.32-7.74,31.4-10.59,42.12-11.63,9.77-.95,35.98-3.16,64.58,10.43,34.88,16.58,51.37,46.24,57.77,60.57,5.8,12.99,16.07,42.03,8.02,77.02-1.34,5.84-7.72,31.52-29.68,55.36-12.7,13.79-25.35,21.24-29.68,23.67-32.49,18.2-64.33,15.37-73.41,14.44-10.93-1.12-42.72-4.82-68.6-28.88-13.54-12.59-21.29-26.89-24.07-32.09-6.29-11.8-9.7-22.58-11.63-30.49"/>
</svg>