<?xml version="1.0" encoding="UTF-8"?>
<svg id="Layer_1" data-name="Layer 1" xmlns="http://www.w3.org/2000/svg" viewBox="0 0 432.85 254.04">
  <defs>
    <style>
      .cls-1 {
        fill: #fdfefe;
      }

      .cls-2 {
        fill: none;
        stroke: #fff;
        stroke-miterlimit: 10;
        stroke-width: 5px;
      }
    </style>
  </defs>
  <g>
    <path class="cls-1" d="m3.03,148.25H0v-33.97h3.03v33.97Z"/>
    <path class="cls-1" d="m12.14,123.54v24.71h-3.03v-24.71c0-6.18,3.03-9.27,9.1-9.27h15.17c6.07,0,9.1,3.09,9.1,9.27v24.71h-3.03v-24.71c0-4.12-2.02-6.18-6.07-6.18h-15.17c-4.05,0-6.07,2.06-6.07,6.18Z"/>
    <path class="cls-1" d="m51.59,123.54v24.71h-3.03v-24.71c0-6.18,3.03-9.27,9.1-9.27h15.17c6.07,0,9.1,3.09,9.1,9.27v24.71h-3.03v-24.71c0-4.12-2.02-6.18-6.07-6.18h-15.17c-4.05,0-6.07,2.06-6.07,6.18Z"/>
    <path class="cls-1" d="m121.39,114.28v3.09h-30.35v12.35h30.35v3.09h-30.35v12.35h30.35v3.09h-33.38v-33.97h33.38Z"/>
    <path class="cls-1" d="m151.74,114.28c6.07,0,9.1,3.09,9.1,9.27,0,3.67-1.06,6.24-3.19,7.72,2.12,1.48,3.19,4.06,3.19,7.72v9.27h-3.03v-9.27c0-4.12-2.02-6.18-6.07-6.18h-21.24v15.44h-3.03v-33.97h24.28Zm0,3.09h-21.24v12.35h21.24c4.05,0,6.07-2.06,6.07-6.18s-2.02-6.18-6.07-6.18Z"/>
    <path class="cls-1" d="m215.47,114.28h15.17c6.07,0,9.1,3.09,9.1,9.27v24.71h-3.03v-13.9h-27.31v13.9h-3.03v-24.71c0-6.18,3.03-9.27,9.1-9.27Zm15.17,3.09h-15.17c-4.05,0-6.07,2.06-6.07,6.18v7.72h27.31v-7.72c0-4.12-2.02-6.18-6.07-6.18Z"/>
    <path class="cls-1" d="m274.65,114.28v3.09h-15.17v30.89h-3.03v-30.89h-15.17v-3.09h33.38Z"/>
    <path class="cls-1" d="m283.75,148.25h-3.03v-33.97h3.03v33.97Z"/>
    <path class="cls-1" d="m298.92,114.28h15.17c6.07,0,9.1,3.09,9.1,9.27v15.44c0,6.18-3.03,9.27-9.1,9.27h-15.17c-6.07,0-9.1-3.09-9.1-9.27v-15.44c0-6.18,3.03-9.27,9.1-9.27Zm15.17,3.09h-15.17c-4.05,0-6.07,2.06-6.07,6.18v15.44c0,4.12,2.02,6.18,6.07,6.18h15.17c4.05,0,6.07-2.06,6.07-6.18v-15.44c0-4.12-2.02-6.18-6.07-6.18Z"/>
    <path class="cls-1" d="m332.31,123.54v24.71h-3.03v-24.71c0-6.18,3.03-9.27,9.1-9.27h15.17c6.07,0,9.1,3.09,9.1,9.27v24.71h-3.03v-24.71c0-4.12-2.02-6.18-6.07-6.18h-15.17c-4.05,0-6.07,2.06-6.07,6.18Z"/>
    <path class="cls-1" d="m182.53,147.68l-17.07-33.41h4.2l12.27,24.29c.46.88.9,1.77,1.33,2.68.43.91.87,1.96,1.33,3.17.46-1.21.9-2.25,1.33-3.13.43-.88.87-1.79,1.33-2.71l12.27-24.29h4.12l-17.07,33.41h-4.03Z"/>
  </g>
  <path class="cls-2" d="m183.9,96.6c2.21-10.05,6.84-24.94,17.27-40.29,17.38-25.6,40.24-36.8,49.34-41.12,16.73-7.94,32.18-10.86,43.17-11.92,10.01-.97,36.88-3.24,66.2,10.69,35.75,16.99,52.66,47.4,59.21,62.09,5.94,13.32,16.47,43.08,8.22,78.95-1.38,5.99-7.91,32.31-30.43,56.74-13.02,14.13-25.98,21.77-30.43,24.26-33.3,18.66-65.93,15.76-75.24,14.8-11.21-1.15-43.79-4.94-70.31-29.6-13.88-12.9-21.83-27.56-24.67-32.89-6.45-12.1-9.94-23.14-11.92-31.25"/>
</svg>